<?xml version="1.0" encoding="UTF-8"?>
<svg xmlns="http://www.w3.org/2000/svg" xmlns:xlink="http://www.w3.org/1999/xlink" width="20px" height="20px" viewBox="0 0 20 20" version="1.1">
<g id="surface1">
<path style=" stroke:none;fill-rule:evenodd;fill:rgb(13.72549%,12.156863%,12.54902%);fill-opacity:1;" d="M 1.511719 0.261719 L 2.449219 0.261719 L 2.449219 19.863281 L 1.511719 19.863281 L 1.511719 0.261719 "/>
<path style=" stroke:none;fill-rule:evenodd;fill:rgb(13.72549%,12.156863%,12.54902%);fill-opacity:1;" d="M 2.746094 0.261719 L 3.035156 0.261719 L 3.035156 19.863281 L 2.746094 19.863281 L 2.746094 0.261719 "/>
<path style=" stroke:none;fill-rule:evenodd;fill:rgb(13.72549%,12.156863%,12.54902%);fill-opacity:1;" d="M 3.289062 0.261719 L 3.808594 0.261719 L 3.808594 19.863281 L 3.289062 19.863281 L 3.289062 0.261719 "/>
<path style=" stroke:none;fill-rule:evenodd;fill:rgb(13.72549%,12.156863%,12.54902%);fill-opacity:1;" d="M 4.3125 0.261719 L 4.601562 0.261719 L 4.601562 19.863281 L 4.3125 19.863281 L 4.3125 0.261719 "/>
<path style=" stroke:none;fill-rule:evenodd;fill:rgb(13.72549%,12.156863%,12.54902%);fill-opacity:1;" d="M 4.726562 0.261719 L 4.953125 0.261719 L 4.953125 19.863281 L 4.726562 19.863281 L 4.726562 0.261719 "/>
<path style=" stroke:none;fill-rule:evenodd;fill:rgb(13.72549%,12.156863%,12.54902%);fill-opacity:1;" d="M 0.796875 0.261719 L 1.085938 0.261719 L 1.085938 19.863281 L 0.796875 19.863281 L 0.796875 0.261719 "/>
<path style=" stroke:none;fill-rule:evenodd;fill:rgb(13.72549%,12.156863%,12.54902%);fill-opacity:1;" d="M 0.15625 0.261719 L 0.675781 0.261719 L 0.675781 19.863281 L 0.15625 19.863281 L 0.15625 0.261719 "/>
<path style=" stroke:none;fill-rule:evenodd;fill:rgb(13.72549%,12.156863%,12.54902%);fill-opacity:1;" d="M 6.507812 0.261719 L 7.445312 0.261719 L 7.445312 19.863281 L 6.507812 19.863281 L 6.507812 0.261719 "/>
<path style=" stroke:none;fill-rule:evenodd;fill:rgb(13.72549%,12.156863%,12.54902%);fill-opacity:1;" d="M 7.742188 0.261719 L 8.03125 0.261719 L 8.03125 19.863281 L 7.742188 19.863281 L 7.742188 0.261719 "/>
<path style=" stroke:none;fill-rule:evenodd;fill:rgb(13.72549%,12.156863%,12.54902%);fill-opacity:1;" d="M 8.285156 0.261719 L 8.804688 0.261719 L 8.804688 19.863281 L 8.285156 19.863281 L 8.285156 0.261719 "/>
<path style=" stroke:none;fill-rule:evenodd;fill:rgb(13.72549%,12.156863%,12.54902%);fill-opacity:1;" d="M 9.308594 0.261719 L 9.597656 0.261719 L 9.597656 19.863281 L 9.308594 19.863281 L 9.308594 0.261719 "/>
<path style=" stroke:none;fill-rule:evenodd;fill:rgb(13.72549%,12.156863%,12.54902%);fill-opacity:1;" d="M 9.722656 0.261719 L 9.949219 0.261719 L 9.949219 19.863281 L 9.722656 19.863281 L 9.722656 0.261719 "/>
<path style=" stroke:none;fill-rule:evenodd;fill:rgb(13.72549%,12.156863%,12.54902%);fill-opacity:1;" d="M 5.792969 0.261719 L 6.082031 0.261719 L 6.082031 19.863281 L 5.792969 19.863281 L 5.792969 0.261719 "/>
<path style=" stroke:none;fill-rule:evenodd;fill:rgb(13.72549%,12.156863%,12.54902%);fill-opacity:1;" d="M 5.152344 0.261719 L 5.671875 0.261719 L 5.671875 19.863281 L 5.152344 19.863281 L 5.152344 0.261719 "/>
<path style=" stroke:none;fill-rule:evenodd;fill:rgb(13.72549%,12.156863%,12.54902%);fill-opacity:1;" d="M 10.316406 0.261719 L 10.835938 0.261719 L 10.835938 19.863281 L 10.316406 19.863281 L 10.316406 0.261719 "/>
<path style=" stroke:none;fill-rule:evenodd;fill:rgb(13.72549%,12.156863%,12.54902%);fill-opacity:1;" d="M 11.339844 0.261719 L 11.628906 0.261719 L 11.628906 19.863281 L 11.339844 19.863281 L 11.339844 0.261719 "/>
<path style=" stroke:none;fill-rule:evenodd;fill:rgb(13.72549%,12.156863%,12.54902%);fill-opacity:1;" d="M 11.757812 0.261719 L 11.980469 0.261719 L 11.980469 19.863281 L 11.757812 19.863281 L 11.757812 0.261719 "/>
<path style=" stroke:none;fill-rule:evenodd;fill:rgb(13.72549%,12.156863%,12.54902%);fill-opacity:1;" d="M 12.820312 0.261719 L 13.113281 0.261719 L 13.113281 19.863281 L 12.820312 19.863281 L 12.820312 0.261719 "/>
<path style=" stroke:none;fill-rule:evenodd;fill:rgb(13.72549%,12.156863%,12.54902%);fill-opacity:1;" d="M 12.179688 0.261719 L 12.699219 0.261719 L 12.699219 19.863281 L 12.179688 19.863281 L 12.179688 0.261719 "/>
<path style=" stroke:none;fill-rule:evenodd;fill:rgb(13.72549%,12.156863%,12.54902%);fill-opacity:1;" d="M 13.5 0.261719 L 13.789062 0.261719 L 13.789062 19.863281 L 13.5 19.863281 L 13.5 0.261719 "/>
<path style=" stroke:none;fill-rule:evenodd;fill:rgb(13.72549%,12.156863%,12.54902%);fill-opacity:1;" d="M 13.914062 0.261719 L 14.140625 0.261719 L 14.140625 19.863281 L 13.914062 19.863281 L 13.914062 0.261719 "/>
<path style=" stroke:none;fill-rule:evenodd;fill:rgb(13.72549%,12.156863%,12.54902%);fill-opacity:1;" d="M 14.980469 0.261719 L 15.269531 0.261719 L 15.269531 19.863281 L 14.980469 19.863281 L 14.980469 0.261719 "/>
<path style=" stroke:none;fill-rule:evenodd;fill:rgb(13.72549%,12.156863%,12.54902%);fill-opacity:1;" d="M 14.339844 0.261719 L 14.859375 0.261719 L 14.859375 19.863281 L 14.339844 19.863281 L 14.339844 0.261719 "/>
<path style=" stroke:none;fill-rule:evenodd;fill:rgb(13.72549%,12.156863%,12.54902%);fill-opacity:1;" d="M 15.523438 0.261719 L 16.460938 0.261719 L 16.460938 19.863281 L 15.523438 19.863281 L 15.523438 0.261719 "/>
<path style=" stroke:none;fill-rule:evenodd;fill:rgb(13.72549%,12.156863%,12.54902%);fill-opacity:1;" d="M 16.757812 0.261719 L 17.050781 0.261719 L 17.050781 19.863281 L 16.757812 19.863281 L 16.757812 0.261719 "/>
<path style=" stroke:none;fill-rule:evenodd;fill:rgb(13.72549%,12.156863%,12.54902%);fill-opacity:1;" d="M 17.300781 0.261719 L 17.824219 0.261719 L 17.824219 19.863281 L 17.300781 19.863281 L 17.300781 0.261719 "/>
<path style=" stroke:none;fill-rule:evenodd;fill:rgb(13.72549%,12.156863%,12.54902%);fill-opacity:1;" d="M 18.324219 0.261719 L 18.617188 0.261719 L 18.617188 19.863281 L 18.324219 19.863281 L 18.324219 0.261719 "/>
<path style=" stroke:none;fill-rule:evenodd;fill:rgb(13.72549%,12.156863%,12.54902%);fill-opacity:1;" d="M 18.742188 0.261719 L 18.964844 0.261719 L 18.964844 19.863281 L 18.742188 19.863281 L 18.742188 0.261719 "/>
<path style=" stroke:none;fill-rule:evenodd;fill:rgb(13.72549%,12.156863%,12.54902%);fill-opacity:1;" d="M 19.335938 0.261719 L 19.855469 0.261719 L 19.855469 19.863281 L 19.335938 19.863281 L 19.335938 0.261719 "/>
<path style=" stroke:none;fill-rule:evenodd;fill:rgb(100%,100%,100%);fill-opacity:1;" d="M 1.21875 19.90625 L 19.203125 19.90625 L 19.203125 8.921875 L 1.21875 8.921875 L 1.21875 19.90625 "/>
<path style=" stroke:none;fill-rule:nonzero;fill:rgb(13.72549%,12.156863%,12.54902%);fill-opacity:1;" d="M 1.554688 19.484375 L 1.554688 9.546875 L 3.226562 9.546875 C 3.566406 9.546875 3.839844 9.648438 4.046875 9.847656 C 4.253906 10.050781 4.414062 10.359375 4.527344 10.777344 C 4.644531 11.195312 4.703125 11.632812 4.703125 12.089844 C 4.703125 12.511719 4.652344 12.914062 4.550781 13.289062 C 4.445312 13.664062 4.292969 13.964844 4.082031 14.195312 C 4.351562 14.371094 4.558594 14.675781 4.703125 15.097656 C 4.851562 15.523438 4.921875 16.023438 4.921875 16.601562 C 4.921875 17.070312 4.878906 17.503906 4.789062 17.902344 C 4.703125 18.304688 4.59375 18.609375 4.460938 18.828125 C 4.332031 19.042969 4.171875 19.207031 3.976562 19.320312 C 3.78125 19.429688 3.539062 19.484375 3.253906 19.484375 Z M 2.148438 13.722656 L 3.109375 13.722656 C 3.371094 13.722656 3.558594 13.683594 3.671875 13.609375 C 3.824219 13.507812 3.9375 13.34375 4.011719 13.113281 C 4.085938 12.878906 4.125 12.589844 4.125 12.242188 C 4.125 11.910156 4.089844 11.621094 4.019531 11.371094 C 3.949219 11.117188 3.847656 10.945312 3.714844 10.851562 C 3.582031 10.757812 3.355469 10.710938 3.039062 10.710938 L 2.148438 10.710938 Z M 2.148438 18.320312 L 3.257812 18.320312 C 3.449219 18.320312 3.582031 18.304688 3.660156 18.269531 C 3.792969 18.21875 3.910156 18.128906 4 18 C 4.089844 17.871094 4.164062 17.6875 4.222656 17.445312 C 4.285156 17.203125 4.3125 16.921875 4.3125 16.605469 C 4.3125 16.234375 4.269531 15.910156 4.183594 15.636719 C 4.097656 15.359375 3.980469 15.167969 3.828125 15.058594 C 3.679688 14.945312 3.460938 14.890625 3.179688 14.890625 L 2.148438 14.890625 L 2.148438 18.320312 "/>
<path style=" stroke:none;fill-rule:nonzero;fill:rgb(13.72549%,12.156863%,12.54902%);fill-opacity:1;" d="M 5.457031 15.882812 C 5.457031 14.554688 5.621094 13.566406 5.957031 12.925781 C 6.234375 12.394531 6.570312 12.128906 6.972656 12.128906 C 7.414062 12.128906 7.777344 12.453125 8.058594 13.101562 C 8.339844 13.746094 8.480469 14.640625 8.480469 15.78125 C 8.480469 16.707031 8.417969 17.433594 8.292969 17.960938 C 8.171875 18.492188 7.988281 18.90625 7.75 19.199219 C 7.511719 19.492188 7.253906 19.636719 6.972656 19.636719 C 6.519531 19.636719 6.15625 19.316406 5.875 18.671875 C 5.597656 18.027344 5.457031 17.097656 5.457031 15.882812 Z M 6.019531 15.886719 C 6.019531 16.804688 6.109375 17.496094 6.289062 17.953125 C 6.46875 18.410156 6.695312 18.640625 6.972656 18.640625 C 7.242188 18.640625 7.46875 18.410156 7.652344 17.949219 C 7.832031 17.488281 7.921875 16.789062 7.921875 15.847656 C 7.921875 14.957031 7.828125 14.285156 7.648438 13.828125 C 7.46875 13.371094 7.242188 13.140625 6.972656 13.140625 C 6.695312 13.140625 6.46875 13.367188 6.289062 13.824219 C 6.109375 14.28125 6.019531 14.96875 6.019531 15.886719 "/>
<path style=" stroke:none;fill-rule:nonzero;fill:rgb(13.72549%,12.156863%,12.54902%);fill-opacity:1;" d="M 9.109375 19.484375 L 9.109375 9.546875 L 9.660156 9.546875 L 9.660156 19.484375 L 9.109375 19.484375 "/>
<path style=" stroke:none;fill-rule:nonzero;fill:rgb(13.72549%,12.156863%,12.54902%);fill-opacity:1;" d="M 12.707031 17.152344 L 13.273438 17.320312 C 13.1875 18.054688 13.023438 18.625 12.78125 19.03125 C 12.539062 19.433594 12.234375 19.636719 11.859375 19.636719 C 11.386719 19.636719 11.015625 19.316406 10.738281 18.664062 C 10.464844 18.019531 10.324219 17.113281 10.324219 15.945312 C 10.324219 14.734375 10.464844 13.796875 10.742188 13.132812 C 11.023438 12.460938 11.382812 12.128906 11.828125 12.128906 C 12.257812 12.128906 12.609375 12.453125 12.882812 13.109375 C 13.15625 13.761719 13.292969 14.683594 13.292969 15.871094 C 13.292969 15.945312 13.292969 16.050781 13.289062 16.195312 L 10.886719 16.195312 C 10.90625 16.984375 11.003906 17.589844 11.1875 18.007812 C 11.363281 18.429688 11.589844 18.640625 11.859375 18.640625 C 12.058594 18.640625 12.230469 18.519531 12.371094 18.285156 C 12.511719 18.046875 12.625 17.671875 12.707031 17.152344 Z M 10.917969 15.195312 L 12.714844 15.195312 C 12.691406 14.589844 12.621094 14.136719 12.507812 13.835938 C 12.335938 13.363281 12.109375 13.128906 11.832031 13.128906 C 11.582031 13.128906 11.371094 13.316406 11.199219 13.691406 C 11.03125 14.066406 10.933594 14.566406 10.917969 15.195312 "/>
<path style=" stroke:none;fill-rule:nonzero;fill:rgb(13.72549%,12.156863%,12.54902%);fill-opacity:1;" d="M 15.15625 18.394531 L 15.230469 19.472656 C 15.074219 19.546875 14.9375 19.582031 14.816406 19.582031 C 14.621094 19.582031 14.464844 19.511719 14.355469 19.371094 C 14.246094 19.230469 14.171875 19.046875 14.125 18.820312 C 14.082031 18.589844 14.058594 18.109375 14.058594 17.375 L 14.058594 13.226562 L 13.65625 13.226562 L 13.65625 12.28125 L 14.058594 12.28125 L 14.058594 10.5 L 14.605469 9.765625 L 14.605469 12.28125 L 15.15625 12.28125 L 15.15625 13.226562 L 14.605469 13.226562 L 14.605469 17.445312 C 14.605469 17.792969 14.617188 18.019531 14.636719 18.117188 C 14.65625 18.21875 14.6875 18.296875 14.730469 18.355469 C 14.773438 18.414062 14.835938 18.445312 14.917969 18.445312 C 14.976562 18.445312 15.054688 18.429688 15.15625 18.394531 "/>
<path style=" stroke:none;fill-rule:nonzero;fill:rgb(13.72549%,12.156863%,12.54902%);fill-opacity:1;" d="M 15.488281 15.882812 C 15.488281 14.554688 15.65625 13.566406 15.988281 12.925781 C 16.265625 12.394531 16.605469 12.128906 17.003906 12.128906 C 17.445312 12.128906 17.808594 12.453125 18.09375 13.101562 C 18.371094 13.746094 18.515625 14.640625 18.515625 15.78125 C 18.515625 16.707031 18.453125 17.433594 18.328125 17.960938 C 18.203125 18.492188 18.019531 18.90625 17.78125 19.199219 C 17.546875 19.492188 17.285156 19.636719 17.003906 19.636719 C 16.550781 19.636719 16.1875 19.316406 15.90625 18.671875 C 15.628906 18.027344 15.488281 17.097656 15.488281 15.882812 Z M 16.050781 15.886719 C 16.050781 16.804688 16.140625 17.496094 16.320312 17.953125 C 16.5 18.410156 16.730469 18.640625 17.003906 18.640625 C 17.277344 18.640625 17.503906 18.410156 17.683594 17.949219 C 17.863281 17.488281 17.953125 16.789062 17.953125 15.847656 C 17.953125 14.957031 17.863281 14.285156 17.679688 13.828125 C 17.5 13.371094 17.273438 13.140625 17.003906 13.140625 C 16.730469 13.140625 16.5 13.367188 16.320312 13.824219 C 16.140625 14.28125 16.050781 14.96875 16.050781 15.886719 "/>
</g>
</svg>
